<svg width="27" height="31" viewBox="0 0 27 31" fill="none" xmlns="http://www.w3.org/2000/svg">
<path d="M27 0H0V16.7989C0.502326 25.3888 9.299 29.8454 13.6346 31C24.0399 28.1598 26.8804 20.0605 27 16.3659V0Z" fill="#0096DB"/>
<path d="M13.5756 20.9846C14.3055 20.9846 14.8973 20.4152 14.8973 19.7128C14.8973 19.0104 14.3055 18.441 13.5756 18.441C12.8456 18.441 12.2539 19.0104 12.2539 19.7128C12.2539 20.4152 12.8456 20.9846 13.5756 20.9846Z" fill="white"/>
<path d="M13.5756 6.99487C11.2435 6.99487 9.34619 8.82056 9.34619 11.0646C9.34619 11.6265 9.81956 12.0821 10.4035 12.0821C10.9875 12.0821 11.4609 11.6265 11.4609 11.0646C11.4609 9.94259 12.4095 9.02974 13.5756 9.02974C14.7416 9.02974 15.6902 9.94259 15.6902 11.0646C15.6902 12.1866 14.7416 13.0995 13.5756 13.0995C12.9916 13.0995 12.5182 13.555 12.5182 14.1169V16.6605C12.5182 17.2224 12.9916 17.6779 13.5756 17.6779C14.1595 17.6779 14.6329 17.2224 14.6329 16.6605V15.0056C16.455 14.5527 17.8049 12.9575 17.8049 11.0646C17.8049 8.82056 15.9076 6.99487 13.5756 6.99487Z" fill="white"/>
</svg>
