<svg width="27" height="31" viewBox="0 0 27 31" fill="none" xmlns="http://www.w3.org/2000/svg">
<path d="M27 0H0V16.7989C0.502326 25.3888 9.299 29.8454 13.6346 31C24.0399 28.1598 26.8804 20.0605 27 16.3659V0Z" fill="#0096DB"/>
<path d="M20.7692 16.2906C20.7692 14.8721 19.9236 13.6062 18.6571 12.9905C18.6177 15.7101 16.3263 17.9151 13.5 17.9529C14.1399 19.1716 15.4555 19.9853 16.9295 19.9853C17.6207 19.9853 18.2927 19.8082 18.8833 19.4717L20.7525 19.9692L20.2354 18.1706C20.5852 17.6023 20.7692 16.9556 20.7692 16.2906Z" fill="white"/>
<path d="M17.6538 11.4916C17.6538 8.46104 15.0917 5.99561 11.9423 5.99561C8.79285 5.99561 6.23071 8.46104 6.23071 11.4916C6.23071 12.4792 6.50392 13.4409 7.02271 14.2851L6.25171 16.9672L9.03912 16.2254C9.91649 16.7247 10.9158 16.9875 11.9423 16.9875C15.0917 16.9875 17.6538 14.5221 17.6538 11.4916ZM11.0658 10.2125H10.1893C10.1893 9.28234 10.9756 8.52572 11.9423 8.52572C12.9089 8.52572 13.6952 9.28234 13.6952 10.2125C13.6952 10.6846 13.4875 11.1383 13.1251 11.4572L12.3805 12.113V12.7707H11.504V11.7416L12.5334 10.835C12.7174 10.673 12.8187 10.452 12.8187 10.2125C12.8187 9.7474 12.4256 9.36909 11.9423 9.36909C11.4589 9.36909 11.0658 9.7474 11.0658 10.2125ZM11.504 13.6141H12.3805V14.4574H11.504V13.6141Z" fill="white"/>
</svg>
