<svg width="27" height="31" viewBox="0 0 27 31" fill="none" xmlns="http://www.w3.org/2000/svg">
<path d="M27 0H0V16.7989C0.502326 25.3888 9.299 29.8454 13.6346 31C24.0399 28.1598 26.8804 20.0605 27 16.3659V0Z" fill="#0096DB"/>
<path d="M14.0984 11.923C14.0867 11.908 14.0718 11.8959 14.0547 11.8876C14.0376 11.8793 14.0189 11.875 14 11.875C13.981 11.875 13.9623 11.8793 13.9452 11.8876C13.9281 11.8959 13.9132 11.908 13.9015 11.923L12.1515 14.137C12.1371 14.1554 12.1281 14.1776 12.1257 14.2008C12.1232 14.2241 12.1274 14.2476 12.1376 14.2686C12.1479 14.2896 12.1639 14.3074 12.1838 14.3197C12.2036 14.3321 12.2266 14.3386 12.25 14.3386H13.4046V18.1261C13.4046 18.1948 13.4609 18.2511 13.5296 18.2511H14.4671C14.5359 18.2511 14.5921 18.1948 14.5921 18.1261V14.3401H15.75C15.8546 14.3401 15.9125 14.2198 15.8484 14.1386L14.0984 11.923Z" fill="white"/>
<path d="M18.6781 10.7297C17.9625 8.84219 16.1391 7.5 14.0031 7.5C11.8672 7.5 10.0438 8.84063 9.32812 10.7281C7.98906 11.0797 7 12.3 7 13.75C7 15.4766 8.39844 16.875 10.1234 16.875H10.75C10.8187 16.875 10.875 16.8188 10.875 16.75V15.8125C10.875 15.7437 10.8187 15.6875 10.75 15.6875H10.1234C9.59687 15.6875 9.10156 15.4781 8.73281 15.0984C8.36562 14.7203 8.17031 14.2109 8.1875 13.6828C8.20156 13.2703 8.34219 12.8828 8.59687 12.5563C8.85781 12.2234 9.22344 11.9812 9.62969 11.8734L10.2219 11.7188L10.4391 11.1469C10.5734 10.7906 10.7609 10.4578 10.9969 10.1562C11.2298 9.85736 11.5057 9.59461 11.8156 9.37656C12.4578 8.925 13.2141 8.68594 14.0031 8.68594C14.7922 8.68594 15.5484 8.925 16.1906 9.37656C16.5016 9.59531 16.7766 9.85781 17.0094 10.1562C17.2453 10.4578 17.4328 10.7922 17.5672 11.1469L17.7828 11.7172L18.3734 11.8734C19.2203 12.1016 19.8125 12.8719 19.8125 13.75C19.8125 14.2672 19.6109 14.7547 19.2453 15.1203C19.066 15.3007 18.8527 15.4437 18.6178 15.541C18.3828 15.6384 18.1309 15.6882 17.8766 15.6875H17.25C17.1812 15.6875 17.125 15.7437 17.125 15.8125V16.75C17.125 16.8188 17.1812 16.875 17.25 16.875H17.8766C19.6016 16.875 21 15.4766 21 13.75C21 12.3016 20.0141 11.0828 18.6781 10.7297Z" fill="white"/>
</svg>
