<svg width="27" height="31" viewBox="0 0 27 31" fill="none" xmlns="http://www.w3.org/2000/svg">
<path d="M27 0H0V16.7989C0.502326 25.3888 9.299 29.8454 13.6346 31C24.0399 28.1598 26.8804 20.0605 27 16.3659V0Z" fill="#0096DB"/>
<path d="M20.591 11.6944C20.5907 11.694 20.5904 11.6937 20.59 11.6934L14.6589 5.98691C14.4061 5.74355 14.07 5.6095 13.7124 5.6095C13.3549 5.6095 13.0188 5.74345 12.7659 5.9868L6.83782 11.6904C6.83583 11.6923 6.83383 11.6944 6.83183 11.6963C6.31268 12.1987 6.31356 13.0138 6.83438 13.5149C7.07233 13.744 7.3866 13.8766 7.72261 13.8905C7.73625 13.8918 7.75001 13.8924 7.76387 13.8924H8.00027V18.0921C8.00027 18.9231 8.70302 19.5992 9.56695 19.5992H11.8874C12.1226 19.5992 12.3134 19.4158 12.3134 19.1894V15.8969C12.3134 15.5177 12.634 15.2092 13.0281 15.2092H14.3968C14.7909 15.2092 15.1115 15.5177 15.1115 15.8969V19.1894C15.1115 19.4158 15.3022 19.5992 15.5375 19.5992H17.8579C18.7219 19.5992 19.4246 18.9231 19.4246 18.0921V13.8924H19.6438C20.0012 13.8924 20.3373 13.7585 20.5904 13.5151C21.1118 13.0132 21.112 12.1966 20.591 11.6944Z" fill="white"/>
</svg>
